<svg xmlns="http://www.w3.org/2000/svg" width="1254" height="836" viewBox="0 0 1254 836">
<g>
<path d="M 0.00 0.00 L 1254.00 0.00 L 1254.00 836.00 L 0.00 836.00 ZM 558.30 647.19 C559.51,647.36 589.53,647.49 625.02,647.47 C687.63,647.44 689.62,647.38 692.16,645.47 C693.68,644.32 696.95,638.90 699.99,632.50 C704.28,623.47 802.01,426.56 805.10,420.73 C805.62,419.75 810.81,409.40 816.63,397.73 C822.46,386.05 833.41,364.12 840.98,349.00 L 854.73 321.50 L 888.12 321.48 C933.25,321.46 998.31,320.03 999.33,319.04 C1000.68,317.74 1000.41,156.64 999.06,154.11 C997.97,152.07 997.25,152.00 978.21,152.00 C964.18,152.00 956.34,152.45 951.00,153.57 C944.53,154.92 937.37,155.04 899.00,154.45 L 854.50 153.77 L 852.25 155.92 C851.01,157.11 849.94,159.30 849.86,160.79 C849.78,162.28 849.84,197.74 849.98,239.59 L 850.24 315.68 L 832.87 316.34 C823.32,316.70 793.44,317.00 766.47,317.00 C722.69,317.00 717.19,317.18 715.11,318.64 C713.67,319.64 708.43,329.18 701.50,343.39 C695.31,356.10 682.48,382.25 673.00,401.50 C663.51,420.75 649.79,448.65 642.50,463.50 C635.21,478.35 621.60,506.02 612.25,525.00 C564.88,621.12 556.15,639.00 556.59,639.00 C556.85,639.00 556.58,639.92 555.98,641.04 C554.50,643.81 555.62,646.81 558.30,647.19 ZM 433.00 486.05 C435.48,486.52 449.61,486.70 464.41,486.45 C479.21,486.20 507.87,486.00 528.09,486.00 C561.55,486.00 565.01,485.85 566.58,484.28 C568.16,482.70 568.23,480.67 567.48,460.03 C567.03,447.64 566.58,411.03 566.48,378.69 C566.32,327.32 566.11,319.68 564.77,318.34 C563.42,316.99 555.16,316.82 495.87,316.89 C458.82,316.94 427.00,316.71 425.17,316.37 L 421.84 315.75 L 422.10 235.84 C422.35,161.40 422.25,155.82 420.65,154.22 C419.07,152.64 415.14,152.50 373.71,152.50 C348.85,152.50 317.76,152.89 304.63,153.37 C283.28,154.14 280.57,154.43 278.88,156.12 C277.85,157.15 277.00,157.55 277.00,157.00 C277.00,156.45 276.11,156.00 275.02,156.00 C272.11,156.00 271.74,158.76 271.62,181.85 C271.46,208.77 273.13,318.36 273.70,318.99 C273.94,319.25 278.89,319.32 284.70,319.14 C292.29,318.89 295.47,319.15 296.02,320.03 C296.61,320.99 310.40,321.22 357.90,321.08 L 419.02 320.89 L 418.86 401.20 C418.77,445.36 419.03,482.57 419.45,483.87 C420.13,485.99 420.66,486.19 424.36,485.72 C426.64,485.44 430.52,485.59 433.00,486.05 ZM 420.00 318.09 C420.00,319.72 419.26,320.00 415.00,320.00 C412.25,320.00 410.00,319.60 410.00,319.11 C410.00,318.35 411.52,317.88 418.75,316.43 C419.44,316.29 420.00,317.04 420.00,318.09 Z" fill="rgb(254,254,254)"/>
<path d="M 854.73 321.50 L 840.98 349.00 C833.41,364.12 822.46,386.05 816.63,397.73 C822.46,386.05 833.49,363.97 841.15,348.65 C848.80,333.34 854.55,320.98 853.91,321.20 C852.51,321.66 846.09,334.40 761.77,504.00 C692.79,642.75 692.03,644.34 690.76,645.12 C690.70,645.15 690.64,645.19 690.57,645.23 C689.27,646.12 557.40,646.26 558.29,645.37 C559.08,644.59 571.39,644.40 637.50,644.15 L 690.50 643.96 L 729.47 565.23 C750.90,521.93 787.19,448.92 810.11,403.00 C833.03,357.08 851.42,319.27 850.98,319.00 C850.55,318.73 860.16,318.50 872.34,318.50 C884.53,318.50 917.56,318.39 945.74,318.25 L 996.98 318.00 L 997.26 258.25 L 997.53 198.50 L 997.52 259.25 C997.51,289.45 997.76,314.70 998.08,319.26 C988.77,320.23 929.90,321.46 888.12,321.48 ZM 875.00 321.02 C884.65,321.67 949.15,321.14 949.92,320.40 C950.15,320.18 931.25,320.09 907.92,320.19 C884.40,320.30 869.73,320.67 875.00,321.02 ZM 1000.20 234.89 C1000.08,194.81 999.67,155.24 999.06,154.11 C999.72,155.35 1000.13,194.86 1000.20,234.89 Z" fill="rgb(143,142,145)"/>
<path d="M 420.00 318.09 C420.00,317.04 419.44,316.29 418.75,316.43 L 418.57 316.46 C419.19,314.50 419.69,287.04 420.01,237.00 C420.29,192.43 420.69,169.58 420.92,185.00 L 421.31 212.50 L 422.11 185.01 C422.14,184.05 422.17,183.12 422.19,182.22 C422.23,194.13 422.18,211.22 422.10,235.84 L 421.84 315.75 L 425.17 316.37 C425.96,316.51 432.35,316.64 442.35,316.73 C430.03,316.88 421.94,317.13 421.91,317.50 C421.85,318.05 421.64,336.27 421.44,358.00 C420.92,413.57 420.83,417.23 420.08,412.50 C419.57,409.26 419.38,409.63 418.84,415.79 C418.84,411.04 418.85,406.16 418.86,401.20 L 419.02 320.89 L 357.90 321.08 C341.75,321.13 329.50,321.13 320.34,321.08 C330.27,320.87 345.76,320.61 362.25,320.39 C388.51,320.04 410.00,319.41 410.00,318.99 C410.00,318.94 410.03,318.89 410.08,318.83 C410.02,318.92 410.00,319.01 410.00,319.11 C410.00,319.60 412.25,320.00 415.00,320.00 C419.26,320.00 420.00,319.72 420.00,318.09 ZM 996.98 318.00 L 945.74 318.25 C917.56,318.39 884.53,318.50 872.34,318.50 C860.16,318.50 850.55,318.73 850.98,319.00 C851.01,319.02 850.97,319.16 850.87,319.44 C850.70,319.18 850.39,319.00 850.03,319.00 C849.50,319.00 849.29,318.41 849.56,317.69 C849.80,317.08 838.22,316.73 821.76,316.60 C826.56,316.52 830.39,316.43 832.87,316.34 L 850.24 315.68 L 849.98 239.59 C849.92,222.95 849.88,207.31 849.85,194.43 L 850.68 215.50 L 851.07 200.00 C851.41,185.92 851.50,186.92 852.00,211.00 C852.31,225.57 852.55,255.61 852.53,277.75 L 852.50 318.00 L 924.75 318.00 ZM 565.54 320.78 C566.21,325.62 566.36,339.29 566.48,378.69 C566.55,399.18 566.75,421.39 567.00,438.06 C566.43,425.24 566.33,427.35 566.18,453.69 C566.08,470.30 565.66,484.09 565.25,484.35 C564.84,484.60 564.46,447.74 564.41,402.44 C564.35,357.14 564.69,320.31 565.16,320.60 C565.30,320.69 565.43,320.75 565.54,320.78 ZM 998.00 317.66 C997.72,310.36 997.51,286.88 997.52,259.25 L 997.53 198.50 L 997.26 258.25 L 997.00 314.58 L 997.00 236.44 C997.00,182.32 997.34,155.09 998.00,155.50 C999.49,156.42 999.37,303.13 998.00,317.66 ZM 753.07 317.01 C732.38,317.38 716.29,317.96 715.16,318.68 C714.77,318.92 714.17,319.67 713.37,320.91 C714.16,319.66 714.75,318.89 715.11,318.64 C716.96,317.34 721.50,317.06 753.07,317.01 ZM 527.77 316.89 C553.66,316.94 561.45,317.19 563.89,317.90 C560.63,317.46 546.23,317.12 527.77,316.89 ZM 849.85 161.53 C849.85,161.14 849.85,160.89 849.86,160.79 C849.94,159.30 851.01,157.11 852.25,155.92 L 854.50 153.77 L 898.97 154.45 C854.81,153.77 854.48,153.78 852.33,155.85 C851.14,156.99 850.33,158.58 849.85,161.53 ZM 839.60 343.29 C832.17,358.56 821.72,379.74 810.11,403.00 C807.47,408.29 804.65,413.94 801.70,419.86 C817.38,388.27 830.75,361.25 839.60,343.29 ZM 567.88 472.43 C568.10,481.67 567.76,483.10 566.58,484.28 C566.55,484.31 566.52,484.34 566.48,484.37 C567.31,483.40 567.78,479.55 567.88,472.43 ZM 341.98 152.67 C324.10,152.94 307.40,153.28 297.78,153.62 C299.82,153.54 302.10,153.46 304.63,153.37 C312.43,153.08 326.58,152.83 341.98,152.67 ZM 723.49 577.31 L 701.02 622.71 L 701.49 621.75 C704.05,616.52 712.12,600.23 723.49,577.31 ZM 419.21 478.46 C419.34,481.25 419.47,483.19 419.62,483.88 C419.72,484.40 419.83,484.81 419.98,485.12 C419.78,484.81 419.62,484.40 419.45,483.87 C419.36,483.59 419.28,481.70 419.21,478.46 ZM 564.70 485.19 C561.56,485.91 553.42,486.00 528.09,486.00 C552.96,486.00 561.48,485.88 564.70,485.19 ZM 278.18 156.74 C277.51,157.57 277.00,157.78 277.00,157.19 C277.00,156.54 276.11,156.00 275.02,156.00 C276.11,156.00 277.00,156.45 277.00,157.00 C277.00,157.42 277.49,157.29 278.18,156.74 ZM 296.00 319.85 C296.00,319.95 296.06,320.05 296.16,320.15 C296.09,320.11 296.04,320.07 296.02,320.03 C295.71,319.53 294.56,319.23 292.25,319.11 C294.71,319.21 296.00,319.46 296.00,319.85 ZM 412.58 317.77 C414.03,317.33 415.86,316.91 417.42,316.70 C415.26,317.14 413.70,317.48 412.58,317.77 ZM 281.68 319.21 C277.27,319.29 273.90,319.21 273.70,318.99 C273.95,319.19 277.29,319.28 281.68,319.21 ZM 292.52 153.85 C289.23,154.02 286.75,154.18 284.86,154.35 C286.72,154.17 289.18,154.01 292.52,153.85 Z" fill="rgb(193,193,194)"/>
<path d="M 558.30 647.19 C555.62,646.81 554.50,643.81 555.98,641.04 C556.58,639.92 556.85,639.00 556.59,639.00 C556.15,639.00 564.88,621.12 612.25,525.00 C621.60,506.02 635.21,478.35 642.50,463.50 C649.79,448.65 663.51,420.75 673.00,401.50 C682.48,382.25 695.32,356.07 701.53,343.33 C708.88,328.25 713.64,319.64 715.16,318.68 C718.46,316.59 850.36,315.62 849.56,317.69 C849.29,318.41 849.50,319.00 850.03,319.00 C850.56,319.00 851.00,319.39 851.00,319.87 C851.00,320.35 819.81,383.47 781.70,460.12 C743.58,536.78 707.49,609.51 701.49,621.75 L 690.58 644.00 L 637.54 644.17 C571.70,644.39 559.08,644.58 558.29,645.37 C557.40,646.26 689.27,646.12 690.57,645.23 C692.10,644.19 689.56,649.24 761.77,504.00 C846.09,334.40 852.51,321.66 853.91,321.20 C854.55,320.98 848.80,333.34 841.15,348.65 C833.49,363.97 822.46,386.05 816.63,397.73 C810.81,409.40 805.62,419.75 805.10,420.73 C802.01,426.56 704.28,623.47 699.99,632.50 C696.95,638.90 693.68,644.32 692.16,645.47 C689.62,647.38 687.63,647.44 625.02,647.47 C589.53,647.49 559.51,647.36 558.30,647.19 ZM 433.00 486.05 C430.52,485.59 426.61,485.44 424.30,485.73 C420.49,486.21 420.06,486.04 419.62,483.88 C418.72,479.50 418.01,425.61 418.73,417.00 C419.35,409.69 419.54,409.06 420.08,412.50 C420.83,417.23 420.92,413.57 421.44,358.00 C421.64,336.27 421.85,318.05 421.91,317.50 C422.05,315.95 562.69,316.50 564.57,318.05 C566.09,319.32 566.59,321.48 565.16,320.60 C564.69,320.31 564.35,357.14 564.41,402.44 C564.46,447.74 564.84,484.60 565.25,484.35 C565.66,484.09 566.08,470.30 566.18,453.69 C566.34,426.72 566.43,425.16 567.05,439.00 C568.37,468.69 568.18,482.68 566.43,484.43 C565.06,485.80 560.18,486.00 528.09,486.00 C507.87,486.00 479.21,486.20 464.41,486.45 C449.61,486.70 435.48,486.52 433.00,486.05 ZM 300.25 321.31 C297.91,321.07 296.00,320.42 296.00,319.85 C296.00,319.18 292.15,318.93 285.06,319.14 C279.05,319.31 273.93,319.24 273.69,318.98 C273.13,318.35 271.47,208.60 271.62,181.85 C271.74,158.76 272.11,156.00 275.02,156.00 C276.11,156.00 277.00,156.54 277.00,157.19 C277.00,157.85 277.64,157.51 278.42,156.44 C279.65,154.76 281.59,154.41 293.17,153.82 C313.91,152.76 412.20,151.63 416.33,152.40 C422.93,153.64 423.01,154.07 422.11,185.01 L 421.31 212.50 L 420.92 185.00 C420.69,169.58 420.29,192.43 420.01,237.00 C419.68,288.92 419.15,316.53 418.50,316.58 C415.33,316.82 410.00,318.33 410.00,318.99 C410.00,319.41 388.51,320.04 362.25,320.39 C335.99,320.75 312.25,321.19 309.50,321.38 C306.75,321.57 302.59,321.54 300.25,321.31 ZM 875.00 321.02 C869.73,320.67 884.40,320.30 907.92,320.19 C931.25,320.09 950.15,320.18 949.92,320.40 C949.15,321.14 884.65,321.67 875.00,321.02 ZM 997.80 318.80 C999.36,317.24 999.56,156.46 998.00,155.50 C997.34,155.09 997.00,182.32 997.00,236.44 L 997.00 318.00 L 924.75 318.00 L 852.50 318.00 L 852.53 277.75 C852.55,255.61 852.31,225.57 852.00,211.00 C851.50,186.92 851.41,185.92 851.07,200.00 L 850.68 215.50 L 849.76 192.00 C848.70,165.23 849.15,158.89 852.33,155.85 C854.49,153.78 854.81,153.77 899.00,154.45 C937.37,155.04 944.53,154.92 951.00,153.57 C956.34,152.45 964.18,152.00 978.21,152.00 C997.25,152.00 997.97,152.07 999.06,154.11 C1000.29,156.41 1000.74,316.99 999.53,318.96 C999.17,319.53 998.37,320.00 997.74,320.00 C996.92,320.00 996.94,319.66 997.80,318.80 Z" fill="rgb(249,250,248)"/>
</g>
</svg>