<svg xmlns="http://www.w3.org/2000/svg" width="1252" height="837" viewBox="0 0 1252 837">
<g>
<path d="M 769.49 481.30 L 689.48 641.50 L 622.74 641.76 C586.03,641.90 556.00,641.84 556.00,641.62 C556.00,640.70 581.17,589.65 631.48,488.50 C661.03,429.10 692.02,366.77 700.35,350.00 L 715.50 319.50 L 851.00 318.99 L 851.11 279.24 C851.17,257.38 851.12,220.71 851.01,197.75 L 850.81 156.00 L 904.66 156.00 C934.27,156.00 966.94,155.70 977.26,155.34 L 996.01 154.68 L 995.76 236.09 L 995.50 317.50 L 923.80 318.00 C866.84,318.40 851.83,318.77 850.80,319.80 C850.09,320.51 813.50,393.19 769.49,481.30 ZM 563.50 481.99 C562.80,483.13 421.80,483.46 420.67,482.33 C420.30,481.97 420.00,445.07 420.00,400.34 L 420.00 319.01 L 347.75 318.76 L 275.50 318.50 L 275.24 237.25 L 274.99 156.00 L 418.68 156.00 L 419.34 194.25 C419.70,215.29 420.00,251.96 420.00,275.75 L 420.00 319.00 L 562.69 319.00 L 563.41 399.99 C563.80,444.54 563.85,481.44 563.50,481.99 Z" fill="rgb(0,3,12)"/>
<path d="M 0.00 418.50 L 0.00 0.00 L 626.00 0.00 L 1252.00 0.00 L 1252.00 418.50 L 1252.00 837.00 L 626.00 837.00 L 0.00 837.00 L 0.00 418.50 ZM 769.49 481.30 C813.50,393.19 850.09,320.51 850.80,319.80 C851.83,318.77 866.84,318.40 923.80,318.00 L 995.50 317.50 L 995.76 236.09 L 996.01 154.68 L 977.26 155.34 C966.94,155.70 934.27,156.00 904.66,156.00 L 850.81 156.00 L 851.01 197.75 C851.12,220.71 851.17,257.38 851.11,279.24 L 851.00 318.99 L 783.25 319.24 L 715.50 319.50 L 700.35 350.00 C692.02,366.77 661.03,429.10 631.48,488.50 C581.17,589.65 556.00,640.70 556.00,641.62 C556.00,641.84 586.03,641.90 622.74,641.76 L 689.48 641.50 L 769.49 481.30 ZM 563.50 481.99 C563.85,481.44 563.80,444.54 563.41,399.99 L 562.69 319.00 L 491.34 319.00 L 420.00 319.00 L 420.00 275.75 C420.00,251.96 419.70,215.29 419.34,194.25 L 418.68 156.00 L 346.83 156.00 L 274.99 156.00 L 275.24 237.25 L 275.50 318.50 L 347.75 318.76 L 420.00 319.01 L 420.00 400.34 C420.00,445.07 420.30,481.97 420.67,482.33 C421.80,483.46 562.80,483.13 563.50,481.99 Z" fill="rgb(244,246,245)"/>
</g>
</svg>